<?xml version="1.0" encoding="utf-8"?>
<!-- Generator: Adobe Illustrator 28.0.0, SVG Export Plug-In . SVG Version: 6.00 Build 0)  -->
<svg version="1.1" id="Layer_1" xmlns="http://www.w3.org/2000/svg" xmlns:xlink="http://www.w3.org/1999/xlink" x="0px" y="0px"
	 width="24px" height="24px" viewBox="0 0 24 24" style="enable-background:new 0 0 24 24;" xml:space="preserve">
<style type="text/css">
	.st0{fill:#FFFFFF;}
</style>
<g id="Arrow_Icon">
	<path class="st0" d="M17,1c1.3,0,2.6,0.5,3.5,1.5C21.5,3.4,22,4.7,22,6v6c0,1.3-0.5,2.6-1.5,3.5c-0.9,1-2.2,1.5-3.5,1.5h-2.2
		l-0.3,0.4l-4.2,5.3C10.1,22.9,9.9,23,9.7,23c-0.1,0-0.1,0-0.2,0C9.2,22.9,9,22.6,9,22.3V17H7c-1.3,0-2.6-0.5-3.5-1.5
		C2.5,14.6,2,13.3,2,12V6c0-1.3,0.5-2.6,1.5-3.5C4.4,1.5,5.7,1,7,1H17 M17,0H7C5.4,0,3.9,0.6,2.7,1.8C1.6,2.9,1,4.4,1,6v6
		c0,3.3,2.7,6,6,6h1v4.3c0,0.7,0.5,1.4,1.2,1.6C9.3,24,9.5,24,9.7,24c0.5,0,1.1-0.3,1.4-0.7l4.2-5.3H17c1.6,0,3.1-0.6,4.2-1.8
		c1.1-1.1,1.8-2.7,1.8-4.2V6c0-1.6-0.6-3.1-1.7-4.2C20.1,0.6,18.6,0,17,0z"/>
	<path class="st0" d="M5.2,14C5.1,14,5,13.9,5,13.8c0,0,0,0,0,0l0.9-9.6C5.9,4.1,6,4,6.1,4h5.7C11.9,4,12,4.1,12,4.2c0,0,0,0,0,0
		l-0.1,0.9c0,0.1-0.1,0.2-0.2,0.2H7.5c-0.1,0-0.2,0.1-0.2,0.2L7.1,8.2c0,0.1,0.1,0.2,0.2,0.2c0,0,0,0,0,0h2.9c0.1,0,0.2,0.1,0.2,0.2
		c0,0,0,0,0,0l-0.1,0.9c0,0.1-0.1,0.2-0.2,0.2H7.1C7,9.7,6.9,9.7,6.9,9.9l-0.2,2.6c0,0.1,0.1,0.2,0.2,0.2c0,0,0,0,0,0H11
		c0.1,0,0.2,0.1,0.2,0.2c0,0,0,0,0,0l-0.1,0.9c0,0.1-0.1,0.2-0.2,0.2L5.2,14z"/>
	<path class="st0" d="M11.8,14c-0.1,0-0.2-0.1-0.2-0.2c0,0,0,0,0,0l0.1-0.9c0-0.1,0.1-0.3,0.1-0.4l5.6-7.1c0.1-0.1,0-0.2-0.1-0.2
		h-4.7c-0.1,0-0.2-0.1-0.2-0.2c0,0,0,0,0,0l0.1-0.9c0-0.1,0.1-0.2,0.2-0.2h6.5c0.1,0,0.2,0.1,0.2,0.2c0,0,0,0,0,0l-0.1,0.9
		c0,0.1-0.1,0.3-0.1,0.4l-5.6,7.1c-0.1,0.1,0,0.2,0.1,0.2h4.7c0.1,0,0.2,0.1,0.2,0.2c0,0,0,0,0,0l-0.1,0.9c0,0.1-0.1,0.2-0.2,0.2
		H11.8z"/>
</g>
</svg>
