<svg class="white myAnalog logo" xmlns="http://www.w3.org/2000/svg" viewBox="0 0 142.4 28"><title>myAnalog</title><g id="Layer_2" data-name="Layer 2" fill="#fff"><g id="Layer_1-2" data-name="Layer 1" fill="#fff"><path class="cls-1" d="M85.37,21.9V13.83c0-3,.28-4.37-2.8-4.37C78.74,9.46,79,12.1,79,14.77V21.9H75.47V6.57h3.08V7.79A6.4,6.4,0,0,1,83,6.32c6.19,0,5.94,3.89,5.94,7.22V21.9Z"></path><path class="cls-1" d="M101.39,21.9V20.65a7.21,7.21,0,0,1-4.78,1.5c-3.65,0-6-1.16-6-4.9,0-4.46,3.27-5,6.54-5h3.92c0-2-.12-3-3.23-3-1.39,0-3.33.07-3.33,1.7H91.08c0-3.93,3.42-4.71,7-4.71,4.11,0,6.5,1.63,6.5,5.59v10Zm-4.34-6.72c-2.17,0-2.86.38-2.86,2,0,1.32.57,2,3,2,3.64,0,4-1.38,4-4.05Z"></path><path class="cls-1" d="M106.35,21.9V0h3.55V21.9Z"></path><path class="cls-1" d="M125,20.43c-1.32,1.28-3.2,1.72-5.65,1.72s-4.34-.44-5.66-1.72S112,17.16,112,14.24s.28-4.91,1.63-6.2,3.17-1.72,5.66-1.72S123.63,6.76,125,8s1.64,3.27,1.64,6.2S126.3,19.14,125,20.43Zm-5.65-11c-3.43,0-3.74,1.32-3.74,4.78S115.87,19,119.3,19,123,17.69,123,14.24,122.72,9.46,119.3,9.46Z"></path><path class="cls-1" d="M142.27,23.6c-.56,3.65-4.27,4.4-7.1,4.4-3.08,0-6.57-.94-6.57-4.84h3.52c0,1.1,1,1.82,3,1.82s3.52-.63,3.7-2.07a18.61,18.61,0,0,0,.07-2.36,6.77,6.77,0,0,1-4.4,1.35c-5.82,0-6.16-4.08-6.16-7.76,0-4.65.85-7.82,6.13-7.82a7.42,7.42,0,0,1,4.77,1.47V6.57h3.21v13.7A24,24,0,0,1,142.27,23.6ZM135,9.46c-2.64,0-3.17,1.1-3.17,4.68s.53,4.56,3.17,4.56c3.05,0,3.87-.72,3.87-4.56S138.06,9.46,135,9.46Z"></path><path class="cls-1" d="M71.62,18.46c-2.36,0-3.58-3.11-5.17-7.83S63,.47,58,.47s-7.16,5.32-9.14,10-3.52,7.91-6,7.91c-2.19,0-3.45-2.26-4.81-5.88L36.32,17.1c1.41,2.7,3.36,4.76,6.57,4.76,4.92,0,7.17-5.33,9.15-10s3.53-7.92,6-7.92S61.59,7.33,63.18,12s3.42,10.48,8.44,10.48h1.94V18.46Z"></path><path class="cls-1" d="M29.1,27.79H25.36L28,21.44l-5.84-15h3.77l3.93,11,3.77-11h3.78Z"></path><path class="cls-1" d="M17.84,21.94V12.75c0-1.9.12-3.18-2.35-3.18-3.4,0-3.06,3.09-3.06,5.34v7H8.93V12.75c0-1.9.1-3.18-2.37-3.18-3.4,0-3,3.15-3,5.4v7H0V6.69H3.06V8a5.65,5.65,0,0,1,4.16-1.6,5.16,5.16,0,0,1,4,1.6,6.11,6.11,0,0,1,4.6-1.6c2.34,0,4.31.82,5.12,2.66a8.87,8.87,0,0,1,.44,3.72v9.12Z"></path></g></g></svg>